<svg xmlns="http://www.w3.org/2000/svg" width="30.418" height="30.42" viewBox="0 0 30.418 30.42">
  <g id="Layer_2" data-name="Layer 2" transform="translate(0 -0.188)">
    <g id="Group_1256" data-name="Group 1256" transform="translate(-1517 -2551.813)">
      <g id="Samples" transform="translate(1517 2552)">
        <path id="Path_47" data-name="Path 47" d="M41,7h1.014V8.014H41Z" transform="translate(-21.227 -4.465)" fill="#4166f5"/>
        <path id="Path_48" data-name="Path 48" d="M37,7h1.014V8.014H37Z" transform="translate(-19.255 -4.465)" fill="#4166f5"/>
        <path id="Path_49" data-name="Path 49" d="M29.675,2H19.535A2.535,2.535,0,0,0,17,4.535V5.549a2.535,2.535,0,0,0,2.535,2.535h.507V27.857a4.563,4.563,0,0,0,9.126,0V8.084h.507A2.535,2.535,0,0,0,32.21,5.549V4.535A2.535,2.535,0,0,0,29.675,2ZM28.154,27.857a3.549,3.549,0,1,1-7.1,0V16.2h7.1Zm0-12.675h-7.1v-7.1h7.1ZM31.2,5.549A1.526,1.526,0,0,1,29.675,7.07H19.535a1.526,1.526,0,0,1-1.521-1.521V4.535a1.526,1.526,0,0,1,1.521-1.521h10.14A1.526,1.526,0,0,1,31.2,4.535Z" transform="translate(-9.395 -2)" fill="#4166f5"/>
        <path id="Path_50" data-name="Path 50" d="M28.684,36.154c-.11.11-2.684,2.709-2.684,4.921a3.042,3.042,0,0,0,6.084,0c0-2.213-2.574-4.812-2.684-4.921a.522.522,0,0,0-.717,0Zm.358,6.949a2.028,2.028,0,0,1-2.028-2.028c0-1.268,1.247-2.941,2.028-3.821.781.88,2.028,2.553,2.028,3.821A2.028,2.028,0,0,1,29.042,43.1Z" transform="translate(-13.832 -18.768)" fill="#4166f5"/>
        <path id="Path_51" data-name="Path 51" d="M27,19.042h2.028V21.07h1.014V19.042H32.07V18.028H30.042V16H29.028v2.028H27Z" transform="translate(-14.325 -8.902)" fill="#4166f5"/>
        <path id="Path_52" data-name="Path 52" d="M10.619,16H2.507A.507.507,0,0,0,2,16.507v6.084a.507.507,0,0,0,.507.507h8.112a.507.507,0,0,0,.507-.507V16.507A.507.507,0,0,0,10.619,16Zm-.507,6.084h-7.1v-5.07h7.1Z" transform="translate(-2 -8.902)" fill="#4166f5"/>
        <path id="Path_53" data-name="Path 53" d="M6,20H7.014v1.014H6Z" transform="translate(-3.972 -10.874)" fill="#4166f5"/>
        <path id="Path_54" data-name="Path 54" d="M10,20h3.042v1.014H10Z" transform="translate(-5.944 -10.874)" fill="#4166f5"/>
        <path id="Path_55" data-name="Path 55" d="M6,24h5.07v1.014H6Z" transform="translate(-3.972 -12.846)" fill="#4166f5"/>
        <path id="Path_56" data-name="Path 56" d="M11.014,32H10v4.056a.507.507,0,0,0,.507.507h3.042V35.549H11.014Z" transform="translate(-5.944 -16.79)" fill="#4166f5"/>
        <path id="Path_57" data-name="Path 57" d="M19,39h1.014v1.014H19Z" transform="translate(-10.381 -20.241)" fill="#4166f5"/>
        <path id="Path_58" data-name="Path 58" d="M52.364,5.684a1.529,1.529,0,0,0-2.079.558l-.76,1.318a1.487,1.487,0,0,0-.761-.2,1.517,1.517,0,0,0-1.47,1.916,1.549,1.549,0,0,0,.319.588l-1.567,2.712a.478.478,0,0,0-.061.152l-.3,1.491L44.2,16.783A1.522,1.522,0,0,0,46.838,18.3l1.48-2.565,1.136-1.009a.415.415,0,0,0,.1-.127l1.572-2.718a1.627,1.627,0,0,0,.269.035,1.549,1.549,0,0,0,.4-.051,1.521,1.521,0,0,0,.365-2.788l.76-1.318a1.529,1.529,0,0,0-.558-2.079Zm-3.645,8.34-1.136,1.009a.586.586,0,0,0-.1.127L45.961,17.8a.509.509,0,0,1-.882-.507L46.6,14.653a.4.4,0,0,0,.061-.152l.3-1.491,1.48-2.56L50.2,11.464Zm3.118-3.372a.5.5,0,0,1-.3.238.512.512,0,0,1-.385-.056L48.511,9.314a.472.472,0,0,1-.233-.3.488.488,0,0,1,.051-.385.507.507,0,0,1,.69-.188l2.636,1.521a.507.507,0,0,1,.183.695Zm.208-3.4-.76,1.318L50.4,8.067l.761-1.318a.509.509,0,1,1,.882.507Z" transform="translate(-22.705 -3.717)" fill="#4166f5"/>
      </g>
    </g>
  </g>
</svg>
