<svg width="25" height="25" viewBox="0 0 25 25" fill="none" xmlns="http://www.w3.org/2000/svg">
<g clip-path="url(#clip0_40_1613)">
<path d="M24.1996 23.4C24.1996 21.4 22.8996 19.7 20.9996 19L16.5996 17.3V13.1C16.5996 11.8 15.6996 10.7 14.3996 10.5C13.5996 10.4 12.8996 10.6 12.2996 11.1C11.6996 11.6 11.3996 12.3 11.3996 13.1V20C10.9996 19.7 9.99963 18.9 9.99963 18.9C8.99963 18 7.29963 18 6.39963 19.1C5.39963 20.1 5.49963 21.8 6.49963 22.7L7.99963 24C8.09963 24.1 8.29963 24.2 8.49963 24.2C8.79963 24.2 8.99963 24 9.09963 23.8C9.19963 23.5 9.09963 23.3 8.89963 23.1L7.29963 21.5C6.79963 21 6.79963 20.2 7.19963 19.7C7.69963 19.2 8.49963 19.2 8.89963 19.6C8.89963 19.6 8.89963 19.6 10.5996 20.9C10.9996 21.2 11.4996 21.3 11.8996 21C12.2996 20.8 12.5996 20.4 12.5996 19.9V12.8C12.5996 12.4 12.7996 12.1 12.9996 11.9C13.2996 11.7 13.5996 11.6 13.9996 11.6C14.5996 11.7 14.9996 12.3 14.9996 12.9V17.6C14.9996 17.9 15.1996 18.1 15.3996 18.2L20.2996 20C21.7996 20.5 22.6996 21.8 22.6996 23.3C22.6996 23.7 22.9996 24 23.3996 24C23.7996 24 24.0996 23.7 24.0996 23.3L24.1996 23.4Z" fill="white"/>
<path d="M3.7998 18.6C2.7998 18 2.1998 17 2.1998 15.8V8.80003H19.9998V16.7C19.9998 17.1 20.2998 17.4 20.6998 17.4C21.0998 17.4 21.3998 17.1 21.3998 16.7V7.20003C21.3998 4.70003 19.3998 2.70003 16.8998 2.70003H16.5998V1.50003C16.5998 1.10003 16.2998 0.800026 15.8998 0.800026C15.4998 0.800026 15.1998 1.10003 15.1998 1.50003V2.70003H6.9998V1.50003C6.9998 1.10003 6.6998 0.800026 6.2998 0.800026C5.8998 0.800026 5.5998 1.10003 5.5998 1.50003V2.70003H5.2998C2.7998 2.70003 0.799805 4.70003 0.799805 7.20003V15.8C0.799805 17.4 1.6998 18.9 3.0998 19.7C3.1998 19.8 3.2998 19.8 3.3998 19.8C3.5998 19.8 3.8998 19.7 3.9998 19.5C4.1998 19.2 4.0998 18.8 3.7998 18.6ZM2.1998 7.50003V7.20003C2.1998 5.50003 3.5998 4.00003 5.3998 4.00003H16.8998C18.4998 4.10003 19.9998 5.50003 19.9998 7.20003V7.50003H2.1998Z" fill="white"/>
</g>
<defs>
<clipPath id="clip0_40_1613">
<rect width="25" height="24" fill="white" transform="translate(0 0.500023)"/>
</clipPath>
</defs>
</svg>
