<svg width="25" height="25" viewBox="0 0 25 25" fill="none" xmlns="http://www.w3.org/2000/svg">
<g clip-path="url(#clip0_40_1619)">
<path d="M24.0998 6.20002C23.4998 5.90002 22.6998 6.00002 21.9998 6.50002L19.9998 8.60002C19.8998 6.00002 17.6998 4.00002 15.0998 4.00002H4.6998C1.9998 4.00002 -0.200195 6.20002 -0.200195 8.90002V16.2C-0.200195 18.9 1.9998 21.1 4.6998 21.1H15.0998C17.6998 21.1 19.7998 19 19.9998 16.5L22.0998 18.6C22.6998 19 23.4998 19.1 24.0998 18.8C24.7998 18.5 25.1998 17.8 25.1998 17.1V8.10002C25.1998 7.20002 24.7998 6.60002 24.0998 6.20002ZM23.4998 7.50002C23.6998 7.60002 23.7998 7.70002 23.7998 7.90002V17C23.7998 17.2 23.6998 17.4 23.4998 17.5C23.2998 17.5 23.0998 17.5 22.9998 17.5L19.9998 14.4V10.6L22.9998 7.60002C23.0998 7.40002 23.2998 7.40002 23.4998 7.50002ZM4.6998 5.40002H15.0998C16.9998 5.40002 18.5998 7.00002 18.5998 8.90002V16.2C18.5998 18.1 16.9998 19.7 15.0998 19.7H4.6998C2.7998 19.7 1.1998 18.1 1.1998 16.2V8.90002C1.1998 6.90002 2.7998 5.40002 4.6998 5.40002Z" fill="#CDCDCD"/>
</g>
<defs>
<clipPath id="clip0_40_1619">
<rect width="25" height="24" fill="white" transform="translate(0 0.500023)"/>
</clipPath>
</defs>
</svg>
