<svg xmlns="http://www.w3.org/2000/svg" width="20.12" height="19.716" viewBox="0 0 20.12 19.716">
  <g id="Buy" transform="translate(0.867 0.867)">
    <path id="Stroke_1" data-name="Stroke 1" d="M.764,0A.765.765,0,1,1,0,.765.766.766,0,0,1,.764,0Z" transform="translate(3.908 16.57)" fill="none" stroke="#fff" stroke-linecap="round" stroke-linejoin="round" stroke-width="1.5"/>
    <path id="Stroke_3" data-name="Stroke 3" d="M.765,0A.765.765,0,1,1,0,.765.766.766,0,0,1,.765,0Z" transform="translate(15.16 16.57)" fill="none" stroke="#fff" stroke-linecap="round" stroke-linejoin="round" stroke-width="1.5"/>
    <path id="Stroke_5" data-name="Stroke 5" d="M0,0,2.08.36l.963,11.473a1.8,1.8,0,0,0,1.8,1.653H15.752a1.8,1.8,0,0,0,1.785-1.546l.949-6.558a1.341,1.341,0,0,0-1.327-1.533H2.414" fill="none" stroke="#fff" stroke-linecap="round" stroke-linejoin="round" stroke-width="1.5"/>
    <path id="Stroke_7" data-name="Stroke 7" d="M0,.5H2.773" transform="translate(11.375 7.045)" fill="none" stroke="#fff" stroke-linecap="round" stroke-linejoin="round" stroke-width="1.5"/>
  </g>
</svg>
