<svg width="33" height="34" viewBox="0 0 33 34" fill="none" xmlns="http://www.w3.org/2000/svg">
<circle cx="16.5" cy="17" r="16.5" fill="#4BAF73" fill-opacity="0.2"/>
<g clip-path="url(#clip0_143_795)">
<path d="M11.3795 23.6682L22.3353 12.7224L22.339 16.8169C22.3357 17.055 22.4288 17.2844 22.5972 17.4529C23.1576 18.0038 24.1044 17.6028 24.0981 16.817L24.1018 10.5783C24.1023 10.0902 23.7066 9.69445 23.2185 9.69503L16.9798 9.69874C15.7797 9.67776 15.7848 11.4903 16.9848 11.4627L21.1 11.4627L10.132 22.4207C9.77411 22.7661 9.77249 23.339 10.1277 23.6871C10.4765 24.0312 11.0399 24.0213 11.3795 23.6682Z" fill="#4BAF73"/>
</g>
<defs>
<clipPath id="clip0_143_795">
<rect width="21.1705" height="21.1705" fill="white" transform="translate(16.9902 31.7866) rotate(-135)"/>
</clipPath>
</defs>
</svg>
