<svg width="33" height="34" viewBox="0 0 33 34" fill="none" xmlns="http://www.w3.org/2000/svg">
<circle cx="16.5" cy="17" r="16.5" fill="#C84444" fill-opacity="0.2"/>
<g clip-path="url(#clip0_143_870)">
<path d="M22.601 9.96531L11.6452 20.9112L11.6415 16.8166C11.6448 16.5785 11.5517 16.3491 11.3832 16.1807C10.8228 15.6297 9.8761 16.0307 9.8824 16.8166L9.87869 23.0553C9.87812 23.5433 10.2739 23.9391 10.7619 23.9385L17.0006 23.9348C18.2008 23.9558 18.1957 22.1432 16.9957 22.1708L12.8805 22.1708L23.8485 11.2128C24.2064 10.8674 24.208 10.2945 23.8528 9.94641C23.504 9.60235 22.9406 9.6122 22.601 9.96531Z" fill="#C84444"/>
</g>
<defs>
<clipPath id="clip0_143_870">
<rect width="21.1705" height="21.1705" fill="white" transform="translate(16.9902 1.84692) rotate(45)"/>
</clipPath>
</defs>
</svg>
