<svg width="362" height="101" viewBox="0 0 362 101" fill="none" xmlns="http://www.w3.org/2000/svg">
<rect x="0.5" y="0.5" width="361" height="100" fill="#F5F7F8" stroke="#DCDCDC" stroke-dasharray="8 8"/>
<path d="M183.797 64.4428C184.38 64.4456 184.853 63.9752 184.853 63.3928V55.928L186.985 57.629C188.06 58.4788 189.367 56.8492 188.294 55.9868L184.458 52.9264C184.076 52.6324 183.527 52.638 183.145 52.9278L179.309 55.9882C178.241 56.8464 179.539 58.483 180.618 57.6304L182.75 55.9294V63.39C182.749 63.9696 183.218 64.4414 183.797 64.4428Z" fill="#DCDCDC"/>
<path d="M195.003 39.3674H184.289C182.742 39.3716 181.298 38.5848 180.463 37.2828L179.035 35.0624C177.815 33.1556 175.707 32.0034 173.443 32.0076H167.003C163.332 32.0118 160.357 34.9868 160.353 38.6576V59.148C160.367 60.5172 162.442 60.5256 162.453 59.148V38.6576C162.456 36.146 164.491 34.1104 167.003 34.1076H173.443C174.991 34.1048 176.433 34.8916 177.269 36.195L178.697 38.4168C179.918 40.3222 182.026 41.4716 184.289 41.4674H195.003C197.515 41.4702 199.55 43.5058 199.553 46.0174V61.948C199.549 65.2324 196.887 67.8938 193.603 67.898H168.403H167.515C166.391 67.905 165.539 66.7878 165.835 65.7056L169.247 52.6436C169.769 50.6388 171.581 49.2388 173.653 49.2388H196.403C197.765 49.2374 197.785 47.143 196.403 47.1388H173.653C170.626 47.136 167.979 49.1786 167.213 52.1074L163.801 65.1694C163.142 67.555 165.032 70.0092 167.503 69.9924H193.597C198.041 69.9868 201.642 66.386 201.647 61.9424V46.0174C201.643 42.3494 198.671 39.3744 195.003 39.3674Z" fill="#DCDCDC"/>
</svg>
