<svg xmlns="http://www.w3.org/2000/svg" width="55.899" height="55.899" viewBox="0 0 55.899 55.899">
  <path id="Path_1619" data-name="Path 1619" d="M131.121,166.466h-2.511a1.916,1.916,0,0,1-1.3-2.086c.039-1.509.008-3.02.011-4.531a6.833,6.833,0,0,1,4.87-6.864c.282-.1.409-.211.4-.527q-.026-1.828,0-3.657c0-.324-.123-.432-.426-.5q-1.867-.392-3.722-.835a.545.545,0,0,0-.69.32q-2.1,3.543-4.229,7.066c-.887,1.475-2.266,1.474-3.153,0q-2.122-3.529-4.233-7.064a.541.541,0,0,0-.689-.318c-1.219.293-2.44.579-3.67.821-.4.079-.479.255-.476.619.013,2.311.016,4.622,0,6.933a.753.753,0,0,0,.506.814,5.128,5.128,0,0,1-.149,9.388,11.621,11.621,0,0,1-1.284.416h-1.419a.925.925,0,0,0-.191-.089,5.149,5.149,0,0,1-4.181-4.328,5.072,5.072,0,0,1,3.1-5.458.56.56,0,0,0,.355-.632c-.006-2.092,0-4.185,0-6.277,0-.157-.019-.315-.033-.535-.577.13-1.1.253-1.632.366a7.123,7.123,0,0,0-5.581,5.031c-1.14,3.411-2.286,6.82-3.4,10.241a2.491,2.491,0,0,1-1.318,1.682H95.2a2.491,2.491,0,0,1-1.2-1.2v-.873a5.28,5.28,0,0,0,.216-.484c1.164-3.478,2.311-6.961,3.487-10.435a10.391,10.391,0,0,1,8.1-7.2c2.925-.649,5.847-1.309,8.775-1.94.385-.083.5-.23.486-.612-.027-1-.037-2,0-3a1,1,0,0,0-.545-.992,13.434,13.434,0,0,1-6.432-10.928c-.148-2.61-.053-5.236-.034-7.854a7.064,7.064,0,0,1,1.506-4.3,14.835,14.835,0,0,1,8.2-5.534c.907-.239,1.842-.367,2.765-.546h2.839a1.636,1.636,0,0,0,.3.092,15.017,15.017,0,0,1,10.4,5.64,7.284,7.284,0,0,1,1.768,4.647q.031,4.036-.03,8.073a9.372,9.372,0,0,1-.274,1.939,13.745,13.745,0,0,1-6.338,8.893.665.665,0,0,0-.362.651c.02,1.073.024,2.146,0,3.218-.009.38.1.523.487.607,3.088.667,6.181,1.319,9.25,2.064a10.046,10.046,0,0,1,7.411,6.523c.918,2.446,1.673,4.953,2.511,7.429.458,1.353.937,2.7,1.407,4.048v.873l-1.2,1.2h-.873a2.478,2.478,0,0,1-1.317-1.681c-1.11-3.419-2.223-6.839-3.418-10.229a9.525,9.525,0,0,0-1.451-2.652c-1.435-1.838-3.52-2.42-5.776-2.718,0,1.092.02,2.126-.01,3.16-.012.4.136.546.5.678a6.577,6.577,0,0,1,4.7,5.9c.167,1.8.039,3.634.087,5.451a1.923,1.923,0,0,1-1.291,2.092h-2.511c-.141-.076-.287-.144-.423-.228a1.57,1.57,0,0,1-.8-1.5,1.53,1.53,0,0,1,.922-1.374,4.974,4.974,0,0,1,.791-.231c0-1.3.086-2.611-.02-3.908a3.6,3.6,0,0,0-7.158-.057c-.121,1.313-.023,2.646-.023,3.967,1.243.28,1.8.889,1.707,1.87A1.8,1.8,0,0,1,131.121,166.466Zm-9.193-27.776c.756-.1,1.52-.151,2.265-.3a10.631,10.631,0,0,0,8.382-10.345c0-.159-.112-.419-.23-.459a8.317,8.317,0,0,1-3.322-2.5.737.737,0,0,0-.94-.207,17.111,17.111,0,0,1-12.157.037.876.876,0,0,0-1.121.245,8.061,8.061,0,0,1-3.243,2.423c-.125.042-.236.333-.235.508A10.722,10.722,0,0,0,121.927,138.689Zm10.484-14.765.171-.077c0-.9.008-1.8,0-2.7a4.349,4.349,0,0,0-1.029-2.754,11.689,11.689,0,0,0-8.249-4.47,12.359,12.359,0,0,0-10.308,3.677c-1.845,1.811-1.785,3.989-1.622,6.423.785-.8,1.474-1.515,2.173-2.218a1.722,1.722,0,0,1,2.348-.432,14.044,14.044,0,0,0,12.127-.006,1.685,1.685,0,0,1,2.3.411C131.032,122.48,131.716,123.207,132.411,123.924Zm-10.459,27.191c1.208-2.015,2.357-3.928,3.5-5.843a.639.639,0,0,0,.1-.3c.007-1.159,0-2.319,0-3.536a14.233,14.233,0,0,1-7.167.017c-.2,2.1-.242,4.08,1.2,5.775a12.547,12.547,0,0,1,1.049,1.717C121.062,149.639,121.481,150.333,121.953,151.115Zm-12.266,8.346A1.864,1.864,0,0,0,107.8,161.3a1.873,1.873,0,1,0,1.888-1.842Z" transform="translate(-94 -110.567)" fill="#fff"/>
</svg>
