<svg id="Group_1357" data-name="Group 1357" xmlns="http://www.w3.org/2000/svg" width="54.889" height="55" viewBox="0 0 54.889 55">
  <path id="Path_741" data-name="Path 741" d="M3929.7,217.349c-.518-.015-1.037,0-1.555-.006a1.847,1.847,0,0,1-2-2.009c-.007-1.056.01-2.112-.005-3.168a1.615,1.615,0,0,0-1.437-1.719c-.083-.018-.164-.05-.284-.087v-.646c0-3.132.031-6.265-.014-9.4a20.233,20.233,0,0,0-.335-3.679,17.044,17.044,0,0,0-26.133-10.988,16.221,16.221,0,0,0-7.662,13.164c-.209,3.64-.074,7.3-.093,10.951,0,.207,0,.414,0,.6-1.4.359-1.724.787-1.724,2.177,0,.967.011,1.933,0,2.9a1.831,1.831,0,0,1-1.891,1.9c-.481.014-.965,0-1.447,0a1.638,1.638,0,0,0-1.822,1.822c0,2.04.035,4.082-.016,6.121a2.083,2.083,0,0,0,1.186,2.174h45.673a1.807,1.807,0,0,0,1.164-1.583c.013-2.327.021-4.654-.005-6.981A1.557,1.557,0,0,0,3929.7,217.349ZM3893.483,198.9a13.859,13.859,0,0,1,27.371-1.925,14.627,14.627,0,0,1,.332,3.032c.041,3.311.016,6.622.014,9.934,0,.14-.021.279-.034.453h-7.1v-.633c0-3.222.007-6.444,0-9.666a6.761,6.761,0,0,0-13.511-.5c-.065,3.364-.02,6.73-.022,10.095v.689h-7.082a1.5,1.5,0,0,1-.049-.26C3893.419,206.377,3893.325,202.632,3893.483,198.9Zm17.363,11.3a1.306,1.306,0,0,1-.038.193h-7.039c-.008-.125-.021-.212-.021-.3,0-3.4-.01-6.8.007-10.2a3.517,3.517,0,0,1,2.486-3.335,3.444,3.444,0,0,1,3.893,1.3,3.74,3.74,0,0,1,.675,1.872C3910.877,203.216,3910.846,206.705,3910.846,210.194Zm-19.1,3.509h31.115c.079,1.2.158,2.381.238,3.6h-31.589C3891.584,216.1,3891.66,214.926,3891.741,213.7Zm36.306,10.524h-41.5V220.61h41.5Z" transform="translate(-3879.852 -172.462)" fill="#fff"/>
  <path id="Path_742" data-name="Path 742" d="M4039.667,115.519a1.609,1.609,0,1,0,3.211,0c.008-.931-.042-1.864.015-2.792a2,2,0,0,0-1.191-2.165h-.858a1.993,1.993,0,0,0-1.191,2.164C4039.71,113.655,4039.661,114.588,4039.667,115.519Z" transform="translate(-4013.827 -110.563)" fill="#fff"/>
  <path id="Path_743" data-name="Path 743" d="M3864.326,294.421a1.612,1.612,0,1,0,0-3.219c-.929-.008-1.86.042-2.787-.014a1.988,1.988,0,0,0-2.159,1.194v.859a1.993,1.993,0,0,0,2.16,1.193C3862.465,294.379,3863.4,294.429,3864.326,294.421Z" transform="translate(-3859.379 -265.312)" fill="#fff"/>
  <path id="Path_744" data-name="Path 744" d="M4201.181,291.275q-1.687-.02-3.372,0a1.608,1.608,0,1,0-.014,3.215c.571.014,1.142,0,1.712,0s1.108.009,1.662,0a1.609,1.609,0,1,0,.012-3.217Z" transform="translate(-4147.939 -265.383)" fill="#fff"/>
  <path id="Path_745" data-name="Path 745" d="M4177.431,205.809c1.116-.593,2.214-1.231,3.286-1.9a1.546,1.546,0,0,0,.567-1.811,1.649,1.649,0,0,0-1.637-1.07,1.919,1.919,0,0,0-.549.148c-1.089.61-2.182,1.212-3.237,1.878a1.593,1.593,0,0,0,1.569,2.756Z" transform="translate(-4129.947 -188.07)" fill="#fff"/>
  <path id="Path_746" data-name="Path 746" d="M3884.251,203.851c1.06.659,2.135,1.3,3.245,1.866a1.579,1.579,0,0,0,2.247-1.47,1.507,1.507,0,0,0-.708-1.311c-1.054-.635-2.112-1.264-3.2-1.841a1.6,1.6,0,0,0-1.588,2.757Z" transform="translate(-3880.094 -187.983)" fill="#fff"/>
  <path id="Path_747" data-name="Path 747" d="M4119.548,140.973a1.508,1.508,0,0,0,1.321-.689c.646-1.068,1.285-2.145,1.867-3.25a1.592,1.592,0,0,0-2.769-1.554c-.648,1.048-1.277,2.11-1.839,3.2A1.586,1.586,0,0,0,4119.548,140.973Z" transform="translate(-4080.922 -131.299)" fill="#fff"/>
  <path id="Path_748" data-name="Path 748" d="M3951.579,140.224a1.491,1.491,0,0,0,1.2.75,1.612,1.612,0,0,0,1.571-2.317c-.557-1.077-1.179-2.123-1.814-3.156a1.569,1.569,0,0,0-2.12-.524,1.6,1.6,0,0,0-.633,2.139C3950.356,138.168,3950.962,139.2,3951.579,140.224Z" transform="translate(-3936.677 -131.301)" fill="#fff"/>
</svg>
