<svg id="Component_45_1" data-name="Component 45 – 1" xmlns="http://www.w3.org/2000/svg" width="24" height="24" viewBox="0 0 24 24">
  <path id="Fill_1" data-name="Fill 1" d="M17.2,24H6.8C2.731,24,0,21.147,0,16.9V7.1C0,2.853,2.731,0,6.8,0H17.2C21.268,0,24,2.853,24,7.1v9.8C24,21.147,21.267,24,17.2,24ZM6.8,1.8c-3.035,0-5,2.08-5,5.3v9.8c0,3.219,1.961,5.3,5,5.3H17.2c3.039,0,5-2.08,5-5.3V7.1c0-3.219-1.962-5.3-5-5.3Z" fill="#fff"/>
  <g id="_2-02" data-name="2-02" transform="translate(8.4 6)">
    <path id="Path_845" data-name="Path 845" d="M247.263,240.649c2.047,0,3.427,1.217,3.427,2.9a2.964,2.964,0,0,1-1.628,2.652c-1,.589-1.287,1-1.287,1.783v.465h-1.6l-.008-.589a2.528,2.528,0,0,1,1.5-2.45c.938-.566,1.272-1.008,1.272-1.791a1.551,1.551,0,0,0-1.752-1.473,1.679,1.679,0,0,0-1.83,1.62h-1.6C243.813,241.983,245.014,240.649,247.263,240.649Zm-1.4,10.281a1.2,1.2,0,1,1,1.2,1.179A1.133,1.133,0,0,1,245.867,250.93Z" transform="translate(-243.743 -240.649)" fill="#fff"/>
  </g>
</svg>
