<svg xmlns="http://www.w3.org/2000/svg" width="55.9" height="55.9" viewBox="0 0 55.9 55.9">
  <g id="Group_1320" data-name="Group 1320" transform="translate(-468 -4307)">
    <path id="Stroke_3" data-name="Stroke 3" d="M8.781,16.528,0,11.289V0" transform="translate(495.95 4324.357)" fill="none" stroke="#fff" stroke-linecap="round" stroke-linejoin="round" stroke-width="3.5"/>
    <path id="Vector" d="M1.11,14.44V26.086" transform="translate(474.134 4330.852)" fill="none" stroke="#fff" stroke-linecap="round" stroke-linejoin="round" stroke-width="3.5"/>
    <path id="Vector-2" data-name="Vector" d="M46.583,23.292A23.3,23.3,0,0,1,23.292,46.583c-12.857,0-20.706-12.95-20.706-12.95H13.113M0,23.292A23.241,23.241,0,0,1,23.292,0C38.827,0,46.583,12.95,46.583,12.95m0,0V1.3m0,11.646H36.242" transform="translate(472.658 4311.659)" fill="none" stroke="#fff" stroke-linecap="round" stroke-linejoin="round" stroke-width="3.5"/>
    <path id="Vector-3" data-name="Vector" d="M0,0H55.9V55.9H0Z" transform="translate(523.9 4362.9) rotate(180)" fill="none" opacity="0"/>
  </g>
</svg>
