<svg width="25" height="25" viewBox="0 0 25 25" fill="none" xmlns="http://www.w3.org/2000/svg">
<path d="M23.8541 10.9389C23.8534 10.9383 23.8529 10.9376 23.8523 10.937L14.0622 1.14728C13.6449 0.729798 13.0901 0.5 12.4999 0.5C11.9098 0.5 11.355 0.729798 10.9375 1.14728L1.15249 10.9321C1.1492 10.9354 1.14572 10.9389 1.1426 10.9422C0.285669 11.804 0.287134 13.2024 1.14682 14.0621C1.53958 14.455 2.05813 14.6825 2.61276 14.7064C2.63547 14.7086 2.65817 14.7097 2.68106 14.7097H3.07107V21.9142C3.07107 23.3401 4.23123 24.5 5.65708 24.5H9.48728C9.87565 24.5 10.1904 24.1851 10.1904 23.7969V18.1485C10.1904 17.4979 10.7198 16.9687 11.3703 16.9687H13.6295C14.2801 16.9687 14.8093 17.4979 14.8093 18.1485V23.7969C14.8093 24.1851 15.124 24.5 15.5124 24.5H19.3426C20.7686 24.5 21.9286 23.3401 21.9286 21.9142V14.7097H22.2904C22.8804 14.7097 23.4352 14.4799 23.8529 14.0623C24.7134 13.2013 24.7138 11.8004 23.8541 10.9389ZM22.8584 13.068C22.7066 13.2198 22.5048 13.3035 22.2904 13.3035H21.2255C20.8371 13.3035 20.5223 13.6183 20.5223 14.0066V21.9142C20.5223 22.5646 19.9932 23.0938 19.3426 23.0938H16.2155V18.1485C16.2155 16.7226 15.0555 15.5625 13.6295 15.5625H11.3703C9.94432 15.5625 8.78416 16.7226 8.78416 18.1485V23.0938H5.65708C5.00669 23.0938 4.47733 22.5646 4.47733 21.9142V14.0066C4.47733 13.6183 4.16257 13.3035 3.7742 13.3035H2.72757C2.71658 13.3028 2.70578 13.3022 2.69461 13.302C2.48514 13.2984 2.28866 13.2152 2.14145 13.0678C1.82834 12.7547 1.82834 12.2451 2.14145 11.9318C2.14126 11.932 2.14163 11.9318 2.14145 11.9318L2.14236 11.9309L11.9321 2.14154C12.0837 1.98975 12.2853 1.90625 12.4999 1.90625C12.7143 1.90625 12.9159 1.98975 13.0677 2.14154L22.8553 11.9289C22.8568 11.9304 22.8584 11.9318 22.8599 11.9333C23.1713 12.247 23.1708 12.7555 22.8584 13.068Z" fill="#CDCDCD"/>
</svg>
