<svg xmlns="http://www.w3.org/2000/svg" width="24" height="23.754" viewBox="0 0 24 23.754">
  <g id="Add_User" data-name="Add User" transform="translate(4)">
    <path id="Combined_Shape" data-name="Combined Shape" d="M0,19.339c0-3.937,5.395-4.391,9.452-4.391,2.338,0,9.452,0,9.452,4.417,0,3.934-5.395,4.389-9.452,4.389C7.114,23.754,0,23.754,0,19.339Zm1.8,0c0,1.736,2.575,2.616,7.652,2.616s7.653-.872,7.653-2.59c0-1.737-2.575-2.617-7.653-2.617S1.8,17.619,1.8,19.339Zm17.944-6.523V11.309H18.192a.9.9,0,0,1,0-1.8h1.553V8a.9.9,0,1,1,1.8,0V9.508H23.1a.9.9,0,0,1,0,1.8H21.545v1.507a.9.9,0,1,1-1.8,0Zm-10.33-.052a6.4,6.4,0,1,1,.038,0ZM4.872,6.382a4.559,4.559,0,0,0,4.547,4.581l.033.9v-.9a4.581,4.581,0,1,0-4.58-4.581Z" transform="translate(-4 0)" fill="#fff"/>
  </g>
</svg>
