<svg width="22" height="18" viewBox="0 0 22 18" fill="none" xmlns="http://www.w3.org/2000/svg">
<path d="M20.7856 8.52765L18.5577 7.03966C18.1541 6.77009 17.5961 7.04459 17.5961 7.512V8.42208H6.89911C6.56222 8.42208 6.28906 8.68083 6.28906 9.00002C6.28906 9.31922 6.56222 9.57793 6.89911 9.57793H17.5961V10.488C17.5961 10.9585 18.1569 11.2278 18.5576 10.9603L20.7854 9.47233C21.1257 9.24525 21.1325 8.75989 20.7856 8.52765Z" fill="#5471CA"/>
<path d="M17.7286 12.7108C17.4371 12.5511 17.0638 12.6454 16.8951 12.9217C15.4621 15.2686 12.7835 16.8442 9.72258 16.8442C5.15706 16.8442 1.44271 13.3253 1.44271 9C1.44271 4.67474 5.15706 1.15585 9.72258 1.15585C12.7856 1.15585 15.463 2.73287 16.895 5.07823C17.0637 5.35455 17.4371 5.44882 17.7286 5.28913C18.0202 5.12932 18.1198 4.77576 17.9512 4.49948C16.3031 1.80036 13.2251 0 9.72258 0C4.47194 0 0.222656 4.02525 0.222656 9C0.222656 13.9743 4.4715 18 9.72258 18C13.2266 18 16.3038 16.1984 17.9512 13.5004C18.1199 13.2242 18.0202 12.8706 17.7286 12.7108Z" fill="#5471CA"/>
</svg>
