<svg xmlns="http://www.w3.org/2000/svg" width="48.856" height="90.164" viewBox="0 0 48.856 90.164">
  <g id="mobile-phone-01" transform="translate(-721.194 -153.962)">
    <path id="Path_709" data-name="Path 709" d="M760.2,153.976H730.829a9.556,9.556,0,0,0-7.019,2.538,9.868,9.868,0,0,0-2.6,7.316v70.443c0,7.257,5.09,9.853,9.853,9.853H760.2c7.256,0,9.853-5.09,9.853-9.853V163.815C770.05,156.558,764.96,153.976,760.2,153.976Zm-36.757,12.94h44.37v59.224h-44.37ZM760.2,241.9h-29.13c-2.285,0-7.628-.742-7.628-7.627v-5.936h44.37v5.936C767.824,236.558,767.067,241.9,760.2,241.9Zm7.627-77.195H723.439v-.876a7.761,7.761,0,0,1,1.944-5.728,7.509,7.509,0,0,1,5.55-1.9H760.2c2.285,0,7.627.742,7.627,7.627Z" fill="#6a7a98"/>
    <path id="Path_710" data-name="Path 710" d="M836.348,183.318h-6.975a1.113,1.113,0,0,0,0,2.226h6.975a1.113,1.113,0,0,0,0-2.226Z" transform="translate(-87.206 -23.911)" fill="#6a7a98"/>
    <path id="Path_711" data-name="Path 711" d="M831.527,566.278a4.882,4.882,0,1,0,4.9,4.9A4.882,4.882,0,0,0,831.527,566.278Zm0,7.553a2.649,2.649,0,1,0,0-.015h0Z" transform="translate(-85.903 -335.834)" fill="#6a7a98"/>
  </g>
</svg>
