<svg xmlns="http://www.w3.org/2000/svg" width="70.472" height="90.16" viewBox="0 0 70.472 90.16">
  <g id="mobile-phone_01-01" data-name="mobile-phone 01-01" transform="translate(-721.194 -153.962)">
    <path id="Path_712" data-name="Path 712" d="M829.373,185.544h6.974a1.113,1.113,0,0,0,0-2.226h-6.974a1.113,1.113,0,0,0,0,2.226Z" transform="translate(-87.207 -23.911)" fill="#6a7a98"/>
    <path id="Path_713" data-name="Path 713" d="M831.557,576.042a4.882,4.882,0,1,0-4.9-4.867A4.882,4.882,0,0,0,831.557,576.042Zm0-7.523a2.649,2.649,0,1,1-.03,5.3h0v.015a2.656,2.656,0,0,1,.03-5.312Z" transform="translate(-85.904 -335.837)" fill="#6a7a98"/>
    <path id="Path_714" data-name="Path 714" d="M790.553,180.563H770.048V163.814c0-7.256-5.09-9.838-9.853-9.838H730.829a9.556,9.556,0,0,0-7.019,2.537,9.868,9.868,0,0,0-2.6,7.316v70.44c0,7.256,5.09,9.853,9.853,9.853H760.2c7.256,0,9.853-5.09,9.853-9.853V207.412h20.5a1.113,1.113,0,0,0,1.113-1.113V181.676A1.112,1.112,0,0,0,790.553,180.563ZM725.383,158.1a7.508,7.508,0,0,1,5.55-1.9H760.2c2.285,0,7.627.742,7.627,7.627v.875H723.439v-.875A7.761,7.761,0,0,1,725.383,158.1Zm42.424,76.168c.015,2.285-.742,7.627-7.612,7.627H731.066c-2.285,0-7.627-.742-7.627-7.627v-5.936h44.368Zm0-8.132H723.439V166.916h44.368v13.647H737.272a1.113,1.113,0,0,0-1.113,1.113V206.3a1.113,1.113,0,0,0,1.113,1.113h7.79v7.651a1.113,1.113,0,0,0,1.867.818l9.185-8.469h11.693Zm21.633-20.951H755.68a1.113,1.113,0,0,0-.754.295l-7.638,7.043V206.3a1.113,1.113,0,0,0-1.113-1.113h-7.79v-22.4H789.44v22.4Z" transform="translate(0)" fill="#6a7a98"/>
    <path id="Path_715" data-name="Path 715" d="M834.713,333.288a1.113,1.113,0,0,0-1.52-.407l-3.712,2.143v-4.286a1.113,1.113,0,0,0-2.226,0v4.286l-3.712-2.143a1.113,1.113,0,1,0-1.113,1.928l3.712,2.143-3.712,2.143a1.113,1.113,0,1,0,1.113,1.928l3.712-2.143v4.286a1.113,1.113,0,1,0,2.226,0v-4.286l3.712,2.143a1.113,1.113,0,1,0,1.113-1.928l-3.712-2.143,3.712-2.143A1.113,1.113,0,0,0,834.713,333.288Z" transform="translate(-82.005 -143.08)" fill="#6a7a98"/>
    <path id="Path_716" data-name="Path 716" d="M927.806,332.881l-3.712,2.143v-4.286a1.113,1.113,0,0,0-2.226,0v4.286l-3.712-2.143a1.113,1.113,0,0,0-1.113,1.928l3.712,2.143-3.712,2.143a1.113,1.113,0,1,0,1.113,1.928l3.712-2.143v4.286a1.113,1.113,0,0,0,2.226,0v-4.286l3.712,2.143a1.113,1.113,0,0,0,1.113-1.928l-3.712-2.143,3.712-2.143a1.113,1.113,0,1,0-1.113-1.928Z" transform="translate(-159.069 -143.08)" fill="#6a7a98"/>
    <path id="Path_717" data-name="Path 717" d="M1011.252,340.615a1.112,1.112,0,0,0,1.52.407l3.712-2.143v4.286a1.113,1.113,0,1,0,2.226,0v-4.286l3.712,2.143a1.113,1.113,0,0,0,1.113-1.928l-3.712-2.143,3.712-2.143a1.113,1.113,0,0,0-1.113-1.928l-3.712,2.143v-4.286a1.113,1.113,0,1,0-2.226,0v4.286l-3.712-2.143a1.113,1.113,0,0,0-1.113,1.928l3.712,2.143-3.712,2.143A1.111,1.111,0,0,0,1011.252,340.615Z" transform="translate(-236.135 -143.08)" fill="#6a7a98"/>
  </g>
</svg>
