<svg xmlns="http://www.w3.org/2000/svg" width="36.5" height="36.5" viewBox="0 0 36.5 36.5">
  <g id="Group_1464" data-name="Group 1464" transform="translate(-15.75 -15.75)">
    <circle id="Ellipse_25" data-name="Ellipse 25" cx="17.5" cy="17.5" r="17.5" transform="translate(16.5 16.5)" fill="none" stroke="#4166f5" stroke-width="1.5"/>
    <g id="vuesax_linear_video-slash" data-name="vuesax/linear/video-slash" transform="translate(-150 -232)">
      <g id="video-slash">
        <path id="Vector" d="M14.63,4s.03-.95,0-1.26C14.46.7,13.13,0,10.52,0H4.21C1.05,0,0,1.05,0,4.21v8.42a4.2,4.2,0,0,0,1.37,3.34l.63.45" transform="translate(174 257.58)" fill="none" stroke="#4166f5" stroke-linecap="round" stroke-linejoin="round" stroke-width="2"/>
        <path id="Vector-2" data-name="Vector" d="M9.48,0V5.26c0,3.16-1.05,4.21-4.21,4.21H0" transform="translate(179.26 264.95)" fill="none" stroke="#4166f5" stroke-linecap="round" stroke-linejoin="round" stroke-width="2"/>
        <path id="Vector-3" data-name="Vector" d="M5.26,0V9.07c0,1.67-1.12,2.25-2.48,1.29L0,8.41" transform="translate(188.74 260.74)" fill="none" stroke="#4166f5" stroke-linecap="round" stroke-linejoin="round" stroke-width="2"/>
        <path id="Vector-4" data-name="Vector" d="M20,0,0,20" transform="translate(174.02 256.19)" fill="none" stroke="#4166f5" stroke-linecap="round" stroke-linejoin="round" stroke-width="2"/>
        <path id="Vector-5" data-name="Vector" d="M0,0H24V24H0Z" transform="translate(172 254)" fill="none" opacity="0"/>
      </g>
    </g>
  </g>
</svg>
