<svg width="44" height="44" viewBox="0 0 44 44" fill="none" xmlns="http://www.w3.org/2000/svg">
<rect width="44" height="44" fill="#F3F6FE"/>
<mask id="mask0_86_1387" style="mask-type:luminance" maskUnits="userSpaceOnUse" x="9" y="9" width="26" height="26">
<path d="M9 9H35V35H9V9Z" fill="white"/>
</mask>
<g mask="url(#mask0_86_1387)">
<path d="M25.0826 30.3732C25.1341 30.5996 25.1613 30.8352 25.1613 31.0771C25.1613 32.823 23.746 34.2383 22.0001 34.2383C20.2542 34.2383 18.8389 32.823 18.8389 31.0771C18.8389 30.8588 18.861 30.6458 18.9031 30.44" stroke="#5471CA" stroke-width="1.4" stroke-miterlimit="10" stroke-linecap="round" stroke-linejoin="round"/>
<path d="M19.75 14.2018V11.9344C19.75 10.763 20.7084 9.80452 21.8799 9.80452H22.1195C23.2909 9.80452 24.2494 10.763 24.2494 11.9344V14.202" stroke="#5471CA" stroke-width="1.4" stroke-miterlimit="10" stroke-linecap="round" stroke-linejoin="round"/>
<path d="M28.5926 20.4004L28.5921 20.4029V20.4004C28.5921 16.7595 25.6405 13.808 21.9996 13.808C18.3587 13.808 15.4071 16.7595 15.4071 20.4004C15.4071 28.8809 12.4951 30.3732 12.4951 30.3732H31.5045C31.5045 30.3732 28.5926 28.8809 28.5926 20.4004Z" stroke="#5471CA" stroke-width="1.4" stroke-miterlimit="10" stroke-linecap="round" stroke-linejoin="round"/>
</g>
</svg>
