<svg xmlns="http://www.w3.org/2000/svg" width="97.889" height="90.16" viewBox="0 0 97.889 90.16">
  <g id="mobile-phone_01a-02" data-name="mobile-phone 01a-02" transform="translate(-1348.599 -220.158)">
    <path id="Path_723" data-name="Path 723" d="M1446.45,282.749a5.544,5.544,0,0,0-5.507-4.908c-.159,0-.316.008-.471.021-.248-.015-.5-.026-.768-.026h-16.411V276.7q0-5.915,0-11.83c0-.145,0-.291-.009-.438.026-3.427.025-10.024-.108-11.112a4.116,4.116,0,0,0-3.151-3.566,13.474,13.474,0,0,0-1.448-.276c0-2.775.01-5.536,0-8.3a21,21,0,0,0-41.853-2.547c-.314,3.28-.152,6.6-.206,9.909-.005.332,0,.664,0,.981-3.14.288-4.714,2.01-4.717,5.043q-.009,11.019,0,22.038v1.229h-1.117c-5.257,0-10.515-.008-15.772,0-.132,0-.262.008-.391.015s-.246-.014-.37-.014a5.544,5.544,0,0,0-5.5,4.857c-.015.028-.03.056-.044.085V305.3l.035.1a5.542,5.542,0,0,0,6.417,4.848c3.831.117,11.741.07,16.327.041.3.014.606.011.908.011h67.188c.294,0,.587,0,.881-.008a5.543,5.543,0,0,0,6.1-4.9l.035-.091V282.782Zm-66.855-43.962a18.106,18.106,0,0,1,35.786-.827,40.878,40.878,0,0,1,.316,6.271c.046,1.742.009,3.486.009,5.3h-6.523c0-2.612.033-5.178-.016-7.743a16.216,16.216,0,0,0-.344-3.306,11.61,11.61,0,0,0-22.909,2.467c-.048,2.828-.008,5.657-.008,8.557h-6.458a4.883,4.883,0,0,1-.064-.616C1379.434,245.518,1379.271,242.129,1379.595,238.787Zm26.716,9.85c0,.278-.024.556-.04.884h-17.5c0-2.237-.03-4.423.011-6.608a18.781,18.781,0,0,1,.276-3.788,8.67,8.67,0,0,1,9.01-6.706,8.517,8.517,0,0,1,8.078,7.548C1406.44,242.833,1406.275,245.745,1406.31,248.637Zm-31.633,5.585c0-1.219.632-1.781,1.875-1.782q20.982-.008,41.963,0c1.286,0,1.862.571,1.9,1.862.022.809,0,6.868.009,10.081,0,.186,0,.372,0,.557q0,5.915,0,11.83v.994h-16.368c-.221-1.995-.46-3.919-.632-5.849a3.017,3.017,0,0,1,.227-1.436,6.81,6.81,0,0,0,.468-4.558,6.761,6.761,0,0,0-11.887-2.6,6.574,6.574,0,0,0-.76,7.182,1.817,1.817,0,0,1,.287.786c-.223,2.169-.487,4.333-.741,6.509h-16.258a3.027,3.027,0,0,1-.084-.487Q1374.665,265.765,1374.677,254.222Zm26,19.256c.1,1.359.3,2.71.458,4.065a1.081,1.081,0,0,1-.04.238h-7.177c.224-1.991.509-3.932.63-5.882a5.386,5.386,0,0,0-.425-2.448,4.012,4.012,0,0,1,.984-4.992,3.869,3.869,0,0,1,4.848-.023,3.77,3.77,0,0,1,.954,4.961C1400.113,270.768,1400.582,272.117,1400.682,273.478Zm39.033,33.979q-1.814,0-3.629-.007-31.354-.072-62.709-.026h-1.138c-.226,0-.456-.008-.682,0-3.047,0-8.6,0-12.543,0h-3.892c-2.422,0-3.653-1.22-3.654-3.623q0-1.941,0-3.881,0-5.837,0-11.675,0-1.9,0-3.808c0-2.516,1.227-3.735,3.761-3.735h3.764q38.549,0,77.1,0h3.816c2.462,0,3.708,1.242,3.709,3.693q0,1.926-.005,3.853c-.008,3.891-.019,7.782.006,11.672.008,1.216.015,2.432.032,3.648A3.571,3.571,0,0,1,1439.715,307.456Z" fill="#6a7a98"/>
    <path id="Path_724" data-name="Path 724" d="M1568.078,490.6c-1.17-.688-2.35-1.359-3.613-2.088.365-.221.631-.389.9-.546.962-.558,1.938-1.095,2.887-1.675a1.417,1.417,0,0,0,.67-2.012,1.47,1.47,0,0,0-2.15-.436c-.308.165-.6.351-.909.524-.922.524-1.845,1.046-2.867,1.626,0-1.509.006-2.843,0-4.176-.007-1.135-.51-1.769-1.4-1.794-.935-.026-1.462.617-1.467,1.81-.006,1.344,0,2.689,0,4.178-1.427-.816-2.658-1.612-3.974-2.221a1.394,1.394,0,0,0-2.01,1.676c.047.339.531.679.891.9,1.161.723,2.356,1.393,3.632,2.138-.752.436-1.355.787-1.96,1.137-.633.366-1.277.715-1.9,1.1a1.4,1.4,0,0,0-.637,1.945,1.442,1.442,0,0,0,2.059.523c.37-.184.722-.4,1.081-.607.9-.513,1.79-1.028,2.816-1.618,0,1.586.008,2.977,0,4.369a1.46,1.46,0,0,0,.909,1.524c.988.413,1.933-.29,1.956-1.493.027-1.41.006-2.821.006-4.39,1.314.752,2.463,1.415,3.617,2.069,1.025.581,1.867.447,2.32-.358C1569.366,491.935,1569.07,491.183,1568.078,490.6Z" transform="translate(-153.034 -193.62)" fill="#6a7a98"/>
    <path id="Path_725" data-name="Path 725" d="M1481.91,490.6c-1.169-.69-2.348-1.363-3.616-2.1,1.355-.787,2.633-1.494,3.873-2.261a1.417,1.417,0,0,0,.231-2.389,1.55,1.55,0,0,0-1.868.032c-1.192.7-2.394,1.381-3.706,2.136,0-1.617.017-3.044-.006-4.471a1.412,1.412,0,0,0-1.462-1.525,1.441,1.441,0,0,0-1.4,1.6c-.02,1.411-.005,2.823-.005,4.385-1.336-.768-2.509-1.453-3.693-2.119-.96-.54-1.8-.385-2.235.386s-.158,1.519.834,2.1c1.175.691,2.356,1.371,3.655,2.126-1.372.793-2.589,1.481-3.79,2.194a1.416,1.416,0,0,0-.715,1.992,1.472,1.472,0,0,0,2.149.477c.366-.191.717-.411,1.077-.615l2.719-1.546c0,1.571,0,2.966,0,4.361a1.455,1.455,0,0,0,1.2,1.6c.9.2,1.648-.516,1.662-1.6.019-1.407,0-2.815,0-4.385,1.327.761,2.477,1.426,3.631,2.082,1.024.581,1.865.444,2.317-.367C1483.2,491.927,1482.912,491.192,1481.91,490.6Z" transform="translate(-88.832 -193.621)" fill="#6a7a98"/>
    <path id="Path_726" data-name="Path 726" d="M1396.169,491.128a8.065,8.065,0,0,0-.894-.549c-1.019-.593-2.04-1.183-3.157-1.83,1.316-.762,2.512-1.422,3.67-2.144.357-.223.825-.59.86-.93a1.881,1.881,0,0,0-.43-1.5,1.914,1.914,0,0,0-1.638-.114c-1.309.609-2.535,1.4-3.937,2.2,0-1.565.031-2.953-.019-4.339a1.691,1.691,0,0,0-.418-1.186,2.078,2.078,0,0,0-1.458-.358,1.323,1.323,0,0,0-.972,1.465c-.005,1.415,0,2.83,0,4.4-1.356-.776-2.565-1.461-3.767-2.158a1.476,1.476,0,0,0-1.857.069,1.411,1.411,0,0,0,.371,2.38c1.222.735,2.469,1.427,3.827,2.208-1.381.8-2.678,1.471-3.875,2.287a1.966,1.966,0,0,0-.75,1.389,1.49,1.49,0,0,0,.836,1.115,2.161,2.161,0,0,0,1.518-.195c1.21-.608,2.363-1.331,3.7-2.1,0,1.523-.01,2.874,0,4.226.01,1.1.563,1.771,1.438,1.776s1.418-.66,1.426-1.766c.009-1.353,0-2.705,0-4.2.441.232.745.381,1.038.547,1,.565,1.972,1.167,2.988,1.693a1.366,1.366,0,0,0,1.9-.533A1.349,1.349,0,0,0,1396.169,491.128Z" transform="translate(-24.622 -193.871)" fill="#6a7a98"/>
    <path id="Path_727" data-name="Path 727" d="M1654.17,490.559c-1.148-.671-2.3-1.329-3.548-2.045.359-.218.624-.385.895-.542.989-.576,2-1.125,2.966-1.731a1.39,1.39,0,0,0,.6-1.957,1.446,1.446,0,0,0-2.066-.486c-.339.174-.663.379-.995.567-.917.52-1.836,1.037-2.863,1.617,0-1.554.015-2.919,0-4.285-.015-1.053-.559-1.666-1.428-1.676s-1.414.6-1.434,1.648c-.012.636,0,1.272,0,1.907,0,.767,0,1.533,0,2.444-1.349-.775-2.5-1.447-3.663-2.1-.99-.557-1.8-.437-2.254.31-.485.8-.189,1.573.842,2.176,1.175.687,2.354,1.366,3.614,2.1l-1.914,1.112c-.633.367-1.273.721-1.9,1.1a1.426,1.426,0,0,0-.67,2.008,1.451,1.451,0,0,0,2.076.471c.424-.217.828-.473,1.243-.709.836-.476,1.673-.95,2.625-1.49,0,1.581-.044,2.949.024,4.311a1.962,1.962,0,0,0,.54,1.321,1.49,1.49,0,0,0,1.365.191,2.122,2.122,0,0,0,.9-1.394c.119-1.408.042-2.834.042-4.421,1.293.738,2.44,1.4,3.592,2.049,1.037.588,1.87.467,2.329-.327S1655.213,491.17,1654.17,490.559Z" transform="translate(-217.226 -193.619)" fill="#6a7a98"/>
  </g>
</svg>
