<svg id="Group_1259" data-name="Group 1259" xmlns="http://www.w3.org/2000/svg" width="45.984" height="55.9" viewBox="0 0 45.984 55.9">
  <path id="Path_733" data-name="Path 733" d="M938,163.188v-.759c0-8.332.1-16.666-.026-25-.127-8.631-4.2-14.854-11.974-18.588a18.729,18.729,0,0,0-8.029-1.708c-.959-.009-1.918,0-2.94,0v-6.571h-9.807c-.016.2-.046.4-.046.593q-.005,2.674,0,5.349v.632h-3.251V138.52h3.25v6.516h9.86v-6.525h3.272v-9.7c.125.013.2.014.268.028a9.834,9.834,0,0,1,7.916,9.749c.017,4.712,0,9.424,0,14.135v.594H915.016v3.2c-.081.053-.1.071-.111.071-2.777.008-5.555.02-8.332.008a.6.6,0,0,1-.406-.326c-.242-.527-.44-1.075-.655-1.614l-1.2-3.015h7.4v-3.23H896.993v3.253c1.1,0,2.165.024,3.23-.012a.692.692,0,0,1,.78.546c.927,2.386,1.9,4.755,2.829,7.139a.74.74,0,0,0,.816.57c3.232-.025,6.464-.013,9.7-.013h.642V163.2H895.309v3.264h45.984v-3.276Zm-29.494-49.3h3.206v3.222h-3.206Zm3.195,27.888h-3.2v-3.231h3.2ZM915,135.2h-9.781V120.452H915Zm19.678,27.95h-16.33v-6.514h16.33Zm.041-10.414v.552h-4.936v-.648c0-4.656.015-9.312,0-13.968a13.091,13.091,0,0,0-8.4-12.417c-.958-.367-1.976-.578-3.03-.879v-4.921a14.766,14.766,0,0,1,5.778,1.161,16.6,16.6,0,0,1,10.5,13.882,14.6,14.6,0,0,1,.091,1.906Q934.724,145.067,934.717,152.732Z" transform="translate(-895.309 -110.563)" fill="#fff"/>
  <path id="Path_734" data-name="Path 734" d="M989.174,235.1h-3.211v3.209h3.211Z" transform="translate(-972.766 -216.968)" fill="#fff"/>
</svg>
