<svg width="21" height="25" viewBox="0 0 21 25" fill="none" xmlns="http://www.w3.org/2000/svg">
<path d="M10.5003 12.0764C12.0907 12.0764 13.4677 11.506 14.5931 10.3806C15.7181 9.2554 16.2887 7.87862 16.2887 6.28805C16.2887 4.69803 15.7183 3.32106 14.5929 2.19547C13.4675 1.07043 12.0905 0.500023 10.5003 0.500023C8.90975 0.500023 7.53296 1.07043 6.40773 2.19565C5.2825 3.32088 4.71191 4.69785 4.71191 6.28805C4.71191 7.87862 5.2825 9.25559 6.40773 10.3808C7.53333 11.5059 8.9103 12.0764 10.5003 12.0764ZM7.4037 3.19143C8.2671 2.32803 9.27993 1.90834 10.5003 1.90834C11.7205 1.90834 12.7335 2.32803 13.5971 3.19143C14.4605 4.05502 14.8804 5.06803 14.8804 6.28805C14.8804 7.50844 14.4605 8.52127 13.5971 9.38485C12.7335 10.2484 11.7205 10.6681 10.5003 10.6681C9.2803 10.6681 8.26747 10.2483 7.4037 9.38485C6.54011 8.52145 6.12024 7.50844 6.12024 6.28805C6.12024 5.06803 6.54011 4.05502 7.4037 3.19143Z" fill="#CDCDCD"/>
<path d="M20.4767 18.9475C20.4443 18.4792 20.3786 17.9684 20.282 17.429C20.1845 16.8855 20.0589 16.3718 19.9085 15.9022C19.753 15.4169 19.542 14.9376 19.2807 14.4783C19.0099 14.0016 18.6916 13.5865 18.3344 13.2449C17.961 12.8875 17.5037 12.6002 16.9749 12.3906C16.4479 12.1822 15.864 12.0766 15.2393 12.0766C14.994 12.0766 14.7567 12.1772 14.2985 12.4755C14.0165 12.6594 13.6867 12.8721 13.3185 13.1074C13.0037 13.308 12.5772 13.4959 12.0504 13.666C11.5365 13.8323 11.0147 13.9167 10.4995 13.9167C9.98462 13.9167 9.4628 13.8323 8.9485 13.666C8.42228 13.4961 7.99562 13.3081 7.68136 13.1076C7.31667 12.8745 6.98664 12.6618 6.70043 12.4754C6.2426 12.177 6.00534 12.0764 5.76002 12.0764C5.13516 12.0764 4.55137 12.1822 4.0246 12.3908C3.49618 12.6 3.03872 12.8873 2.66486 13.2451C2.3077 13.5868 1.9894 14.0018 1.71877 14.4783C1.45786 14.9376 1.24664 15.4167 1.09116 15.9024C0.940994 16.3719 0.815398 16.8855 0.717855 17.429C0.621045 17.9676 0.555589 18.4786 0.523136 18.948C0.491233 19.4069 0.475098 19.8846 0.475098 20.3672C0.475098 21.6216 0.873887 22.6372 1.66028 23.3862C2.43696 24.1253 3.46446 24.5001 4.71437 24.5001H16.286C17.5356 24.5001 18.5631 24.1253 19.3399 23.3862C20.1265 22.6378 20.5253 21.6218 20.5253 20.367C20.5251 19.8827 20.5088 19.4051 20.4767 18.9475ZM18.3689 22.3659C17.8557 22.8543 17.1744 23.0918 16.2859 23.0918H4.71437C3.82566 23.0918 3.14433 22.8543 2.63131 22.366C2.12801 21.887 1.88342 21.2329 1.88342 20.3672C1.88342 19.9168 1.89827 19.4722 1.92797 19.0454C1.95694 18.6266 2.01617 18.1666 2.10399 17.6778C2.19072 17.195 2.30109 16.7419 2.43237 16.3318C2.55834 15.9385 2.73014 15.5491 2.94319 15.1739C3.14653 14.8164 3.38048 14.5096 3.63864 14.2625C3.88012 14.0313 4.18448 13.8421 4.54312 13.7001C4.8748 13.5689 5.24755 13.497 5.65221 13.4862C5.70153 13.5124 5.78936 13.5624 5.93164 13.6552C6.22115 13.8439 6.55485 14.0591 6.92375 14.2948C7.33959 14.5599 7.87535 14.7993 8.51543 15.006C9.16981 15.2176 9.83721 15.325 10.4997 15.325C11.1621 15.325 11.8297 15.2176 12.4837 15.0062C13.1243 14.7991 13.6599 14.5599 14.0763 14.2944C14.4538 14.0531 14.7782 13.8441 15.0677 13.6552C15.21 13.5626 15.2978 13.5124 15.3471 13.4862C15.7519 13.497 16.1247 13.5689 16.4566 13.7001C16.815 13.8421 17.1194 14.0315 17.3608 14.2625C17.619 14.5095 17.853 14.8162 18.0563 15.1741C18.2695 15.5491 18.4415 15.9387 18.5673 16.3316C18.6988 16.7423 18.8093 17.1952 18.8959 17.6776C18.9835 18.1673 19.0429 18.6275 19.0719 19.0456V19.0459C19.1018 19.4711 19.1168 19.9156 19.117 20.3672C19.1168 21.2331 18.8722 21.887 18.3689 22.3659Z" fill="#CDCDCD"/>
</svg>
