<svg xmlns="http://www.w3.org/2000/svg" width="42.514" height="55.9" viewBox="0 0 42.514 55.9">
  <path id="Path_735" data-name="Path 735" d="M1662.442,110.563h2.833c1.019.157,2.051.257,3.055.48A21.28,21.28,0,0,1,1685.1,131.93c.021,7.911.008,15.823,0,23.734a6,6,0,0,1-6.222,6.213q-3.294.006-6.589,0h-.626c.1.789.182,1.509.275,2.229.174,1.34.009,1.694-1.111,2.357h-13.948c-1.121-.661-1.286-1.017-1.112-2.357.094-.727.177-1.456.27-2.229h-.675q-3.267,0-6.534,0a6,6,0,0,1-6.222-6.213c-.005-7.911-.032-15.823.023-23.733a20.258,20.258,0,0,1,.562-4.91c2.15-8.264,7.382-13.559,15.612-15.82C1659.989,110.875,1661.229,110.77,1662.442,110.563Zm1.4,29.479c2.522,0,5.045.009,7.568-.014a1.135,1.135,0,0,0,.742-.309,11.1,11.1,0,0,0,3.125-7.3,11.383,11.383,0,0,0-12.792-11.916,10.841,10.841,0,0,0-9.359,7.46,11.02,11.02,0,0,0,2.416,11.739,1.178,1.178,0,0,0,.788.326C1658.837,140.051,1661.341,140.042,1663.846,140.042Zm6.233,9.826,1.148,8.734h.579q3.512,0,7.025,0a2.755,2.755,0,0,0,3-3.017q0-5.838,0-11.676v-.664a10.468,10.468,0,0,1-1.077,1.466,3.756,3.756,0,0,0-1.124,3.28c.094,1.23-.622,1.877-1.859,1.878q-3.54,0-7.079,0Zm-12.445,0h-.616c-2.4,0-4.792,0-7.188,0a1.648,1.648,0,0,1-1.772-1.768c-.005-.546.023-1.093-.012-1.636a1.372,1.372,0,0,0-.247-.678c-.531-.736-1.091-1.451-1.643-2.171-.065-.085-.147-.157-.278-.294,0,4.189,0,8.281,0,12.372a2.732,2.732,0,0,0,2.893,2.909c2.4,0,4.792,0,7.188,0h.526C1656.87,155.685,1657.249,152.807,1657.635,149.868Zm10.893,13.3-1.744-13.265h-5.857c-.582,4.432-1.16,8.836-1.741,13.265Zm7.808-16.6a2.718,2.718,0,0,0-2.736-3.244q-9.746-.012-19.493,0a2.713,2.713,0,0,0-2.725,3.244Zm-21.727-26.35a39.04,39.04,0,0,1,3.619-1.945,39.932,39.932,0,0,1,3.962-1.209v-3.143a17.855,17.855,0,0,0-9.787,4.065C1653.182,118.768,1653.92,119.516,1654.609,120.214Zm-5.523,9.979a39.507,39.507,0,0,1,1.2-3.958,38.837,38.837,0,0,1,1.918-3.586l-2.231-2.238a17.888,17.888,0,0,0-4.016,9.781Zm28.637-9.788-2.324,2.312a14.876,14.876,0,0,1,3.079,7.471h3.275A17.866,17.866,0,0,0,1677.724,120.405Zm-4.778-.169,2.3-2.311a17.685,17.685,0,0,0-9.718-4v3.266C1668.55,117.673,1669.5,118.067,1672.946,120.236Zm-23.721,13.288h-3.27a17.755,17.755,0,0,0,3.247,8.746l2.6-1.938C1649.838,136.745,1649.762,136.545,1649.225,133.525Zm29.289,8.752a17.753,17.753,0,0,0,3.236-8.755h-3.278a14.958,14.958,0,0,1-2.571,6.8Z" transform="translate(-1642.6 -110.563)" fill="#fff"/>
</svg>
