<svg width="37" height="34" viewBox="0 0 37 34" fill="none" xmlns="http://www.w3.org/2000/svg">
<path d="M19.8127 28.1709H4.28591C2.30828 28.1709 0.705078 26.5677 0.705078 24.5901V7.1603C0.705078 5.18267 2.30828 3.57947 4.28591 3.57947H29.6165C31.5942 3.57947 33.1974 5.18267 33.1974 7.1603V17.4907" stroke="#5471CA" stroke-width="1.4" stroke-miterlimit="10" stroke-linecap="round" stroke-linejoin="round"/>
<path d="M3.96436 9.50507H29.7649" stroke="#5471CA" stroke-width="1.4" stroke-miterlimit="10" stroke-linecap="round" stroke-linejoin="round"/>
<path d="M9.45264 5.86354V1.33441" stroke="#5471CA" stroke-width="1.4" stroke-miterlimit="10" stroke-linecap="round" stroke-linejoin="round"/>
<path d="M24.4443 5.86354V1.33441" stroke="#5471CA" stroke-width="1.4" stroke-miterlimit="10" stroke-linecap="round" stroke-linejoin="round"/>
<path d="M24.0398 21.2613C26.5286 18.6413 30.67 18.5349 33.29 21.0236C35.9101 23.5123 36.0165 27.6538 33.5278 30.2739C31.0391 32.8939 26.8976 33.0003 24.2775 30.5116C22.5843 28.9032 21.9409 26.6046 22.3694 24.4724" stroke="#5471CA" stroke-width="1.4" stroke-miterlimit="10" stroke-linecap="round" stroke-linejoin="round"/>
<path d="M25.9406 21.6203L23.7734 21.4328L23.9609 19.2656" stroke="#5471CA" stroke-width="1.4" stroke-miterlimit="10" stroke-linecap="round" stroke-linejoin="round"/>
<path d="M28.6714 22.0178V25.8585H31.0715" stroke="#5471CA" stroke-width="1.4" stroke-miterlimit="10" stroke-linecap="round" stroke-linejoin="round"/>
</svg>
