<svg id="_3_User" data-name="3 User" xmlns="http://www.w3.org/2000/svg" width="25.932" height="20" viewBox="0 0 25.932 20">
  <path id="Combined_Shape" data-name="Combined Shape" d="M4.976,16.194c0-3.791,6.014-3.791,7.991-3.791s7.991,0,7.991,3.81C20.957,20,15.151,20,12.967,20,10.99,20,4.976,20,4.976,16.194Zm1.787,0c0,1.668,3.374,2.019,6.2,2.019s6.2-.346,6.2-2c0-1.672-3.374-2.023-6.2-2.023S6.763,14.538,6.763,16.194Zm16.058.538a.892.892,0,0,1,.517-1.152c.808-.308.808-.647.808-.81,0-.522-.664-.887-1.971-1.082a.894.894,0,1,1,.266-1.768c2.886.433,3.491,1.788,3.491,2.849a2.614,2.614,0,0,1-1.957,2.479.893.893,0,0,1-1.153-.517ZM1.96,17.249A2.616,2.616,0,0,1,0,14.77c0-1.06.607-2.416,3.494-2.849a.894.894,0,1,1,.265,1.768c-1.308.2-1.971.56-1.971,1.082,0,.163,0,.5.808.81a.893.893,0,1,1-.636,1.669Zm10.976-6.365A5.424,5.424,0,0,1,7.526,5.438a5.441,5.441,0,1,1,5.441,5.446ZM9.313,5.442A3.638,3.638,0,0,0,12.938,9.1l.03.893V9.1A3.655,3.655,0,1,0,9.313,5.442Zm9.916,3.491a.893.893,0,0,1,.761-1.009,2.527,2.527,0,0,0,.058-5,.894.894,0,1,1,.291-1.763,4.314,4.314,0,0,1-.1,8.529.953.953,0,0,1-.123.009A.9.9,0,0,1,19.229,8.934ZM5.7,9.7a4.314,4.314,0,0,1-.1-8.529A.894.894,0,0,1,5.886,2.93a2.527,2.527,0,0,0,.056,5A.894.894,0,0,1,5.819,9.7.98.98,0,0,1,5.7,9.7Z" fill="#6a7a98"/>
</svg>
