<svg xmlns="http://www.w3.org/2000/svg" width="123.019" height="139.896" viewBox="0 0 123.019 139.896">
  <path id="Union_1" data-name="Union 1" d="M3.044,139.9C.677,138.8-.007,136.926,0,134.388Q.094,98.8.037,63.207c0-3.875,1.4-5.287,5.237-5.287q3.417,0,6.835.006c5.192.008,10.383.015,15.575-.018,5.458-.035,9.6,2.1,12.107,7.053.386.762.813.626,1.43.426a24.767,24.767,0,0,0,10.414-7.028A51.225,51.225,0,0,0,64.241,34.07c.428-1.907.908-3.8,1.408-5.693a4.289,4.289,0,0,1,4.549-3.52c3.65-.064,7.3-.128,10.678,1.614,5.894,3.04,9.085,7.87,9.322,14.488a78.048,78.048,0,0,1-3,24.016c-.074.262-.156.523-.215.788-.018.079.031.173.07.353h7.483c5.283,0,10.567-.034,15.851.01a12.146,12.146,0,0,1,12.141,9.111A11.441,11.441,0,0,1,120.7,85.471a1.532,1.532,0,0,0-.057,2.211,11.991,11.991,0,0,1,.021,14.258c-.5.672-.759,1.14-.138,1.983a12.157,12.157,0,0,1-5.575,18.781c-.292.11-.578.233-.585.235a44.846,44.846,0,0,1,.227,6.346,11.947,11.947,0,0,1-10.066,10.4,3.934,3.934,0,0,0-.632.215H64.81c-.395-.088-.788-.185-1.185-.262-2.624-.511-5.307-.816-7.859-1.568-4.958-1.461-9.851-3.145-14.748-4.8a1.246,1.246,0,0,0-1.817.683,10.629,10.629,0,0,1-4.667,4.441c-1.246.606-2.588,1.013-3.887,1.509ZM8.329,66.118V131.7c6.505,0,12.918,0,19.331,0,3.744,0,5.173-1.439,5.173-5.209q0-27.582,0-55.164c0-.322.006-.64,0-.956a4.108,4.108,0,0,0-4.215-4.243c-1.41-.035-2.822-.009-4.234-.009H8.329Zm64.6-32.974c-.171.648-.342,1.212-.466,1.785A60.6,60.6,0,0,1,59.7,61.617c-4.8,5.72-10.4,10.33-17.876,12.1-.851.2-.791.7-.791,1.3q0,24.251-.019,48.5a1.343,1.343,0,0,0,1.124,1.518c4.714,1.532,9.4,3.14,14.112,4.685a37.066,37.066,0,0,0,11.527,1.964q17.218.029,34.435.007a4.1,4.1,0,1,0,.352-8.188c-2.519-.239-4.184-1.937-4.125-4.2.06-2.333,1.875-3.97,4.469-3.991,1.271-.01,2.543-.008,3.814,0,1.188,0,2.377,0,3.565,0,2.674-.017,4.513-1.684,4.529-4.067s-1.823-4.1-4.475-4.122c-1.275-.01-2.55-.008-3.824-.006-1.185,0-2.37,0-3.555,0-2.672-.018-4.51-1.688-4.524-4.074s1.827-4.095,4.481-4.116c1.262-.01,2.524-.008,3.786-.005,1.2,0,2.4,0,3.592,0,2.669-.019,4.508-1.694,4.518-4.08s-1.831-4.089-4.487-4.109c-1.173-.009-2.346-.006-3.519,0-1.332,0-2.665.006-4-.008a4.1,4.1,0,1,1-.018-8.184c1.553-.019,3.107-.015,4.661-.011q1.086,0,2.172,0c3.284,0,5.186-1.5,5.188-4.1s-1.908-4.1-5.182-4.1H98.574q-14.216,0-28.433-.006c-2.662,0-4.5-1.708-4.5-4.1s1.841-4.072,4.5-4.093c2.277-.018,4.556-.042,6.832.016a1.35,1.35,0,0,0,1.56-1.081,65.073,65.073,0,0,0,3.383-24.59,7.911,7.911,0,0,0-8.208-7.355Q73.325,33.111,72.932,33.144Zm-52.6,90.341a4.085,4.085,0,1,1,.2.005C20.47,123.49,20.4,123.488,20.337,123.485ZM95.347,23.863a3.883,3.883,0,0,1-.354-5.33c2.071-2.291,4.291-4.459,6.564-6.552a8.38,8.38,0,0,1,2.552-1.087,4.475,4.475,0,0,1,3.561,2.48,3.565,3.565,0,0,1-.351,4.118c-2.147,2.346-4.388,4.622-6.75,6.749a3.366,3.366,0,0,1-2.284.854A4.239,4.239,0,0,1,95.347,23.863Zm-40.237.252c-2.248-2.053-4.388-4.236-6.448-6.476a8.49,8.49,0,0,1-1.1-2.549,4.462,4.462,0,0,1,2.468-3.569,3.625,3.625,0,0,1,4.23.415c2.272,2.1,4.484,4.269,6.564,6.553a3.879,3.879,0,0,1-.28,5.335,4.148,4.148,0,0,1-2.939,1.259A3.669,3.669,0,0,1,55.111,24.115ZM77.92,16.648a4.094,4.094,0,0,1-4.077-4.1c-.047-1.41-.009-2.823-.009-4.234s-.039-2.824.009-4.234A4.083,4.083,0,1,1,82.01,4.1q.081,4.232,0,8.468a4.067,4.067,0,0,1-4.079,4.081Z" transform="translate(0 0)" fill="#4166f5"/>
</svg>
