<svg width="46" height="46" viewBox="0 0 46 46" fill="none" xmlns="http://www.w3.org/2000/svg">
<path d="M43.4164 20.7692C44.4656 22.0663 44.4656 23.9338 43.4164 25.2309C40.1502 29.2685 31.9437 37.3741 23.0017 37.3741C14.0597 37.3741 5.85001 29.2685 2.58379 25.2308C1.53457 23.9337 1.53457 22.0662 2.58379 20.7691C5.85001 16.7315 14.0596 8.62602 23.0016 8.62602C31.9436 8.62602 40.1501 16.7315 43.4164 20.7692Z" stroke="#5471CA" stroke-width="1.4" stroke-miterlimit="10" stroke-linecap="round" stroke-linejoin="round"/>
<path d="M23.0017 30.1871C26.971 30.1871 30.1887 26.9693 30.1887 23C30.1887 19.0308 26.971 15.813 23.0017 15.813C19.0324 15.813 15.8147 19.0308 15.8147 23C15.8147 26.9693 19.0324 30.1871 23.0017 30.1871Z" stroke="#5471CA" stroke-width="1.4" stroke-miterlimit="10" stroke-linecap="round" stroke-linejoin="round"/>
</svg>
