<svg xmlns="http://www.w3.org/2000/svg" width="17.496" height="18.5" viewBox="0 0 17.496 18.5">
  <g id="time-left-01" transform="translate(-378.412 -1024.001)">
    <path id="Path_1598" data-name="Path 1598" d="M391.541,1040.177a.712.712,0,0,0-.814-.015,7.216,7.216,0,0,1-2.98.895,7.349,7.349,0,0,1-7.858-6.368,6.921,6.921,0,0,1,.607-4.009,7.241,7.241,0,0,1,5.64-4.207c.322-.053.652-.059.994-.088,0,.266-.009.495,0,.722.005.087.041.214.1.244s.169-.039.252-.075a.509.509,0,0,0,.112-.09l1.363-1.156c.3-.253.3-.455-.007-.7L387.342,1024H387.2a1.882,1.882,0,0,0-.085.339c-.014.208,0,.419,0,.626a.327.327,0,0,1-.062.02q-.144.01-.288.016a8.42,8.42,0,0,0-3.418.866,8.667,8.667,0,0,0-4.236,4.472,8.743,8.743,0,0,0,10.787,11.71,11.36,11.36,0,0,0,1.564-.687A.692.692,0,0,0,391.541,1040.177Z" fill="#4166f5"/>
    <path id="Path_1599" data-name="Path 1599" d="M473.18,1122.426c.5-.112,1.009-.225,1.514-.335a1.243,1.243,0,0,0,.91-.643,3.3,3.3,0,0,0,.167-.418c.132-.378.259-.758.388-1.135.344.079.344.079.457-.252.045-.131.09-.261.134-.392.082-.244.06-.29-.179-.371l-3.618-1.229-2.065-.7c-.124-.042-.241-.06-.3.1-.079.221-.155.442-.227.665a.173.173,0,0,0,.123.24c.044.015.087.036.14.058-.022.075-.04.144-.062.211-.146.439-.294.877-.438,1.317a.893.893,0,0,0,.169.912c.4.469.785.944,1.177,1.416a.355.355,0,0,1-.18.535c-.516.117-1.031.237-1.548.346a1.272,1.272,0,0,0-1.019.889c-.107.319-.216.637-.325.955-.02.06-.046.117-.069.174-.317-.1-.335-.09-.434.2q-.084.248-.169.494a.2.2,0,0,0,.143.29c.332.106.66.224.99.336l4.727,1.607c.224.076.272.052.348-.166.049-.142.1-.284.145-.427.109-.322.109-.322-.21-.464.148-.447.295-.884.437-1.323a.921.921,0,0,0-.178-.944c-.387-.453-.763-.915-1.143-1.374A.35.35,0,0,1,473.18,1122.426Zm-.82.727c.411.487.809.986,1.231,1.464a.581.581,0,0,1,.128.656c-.145.387-.268.782-.406,1.189l-4.439-1.509c.165-.453.313-.9.491-1.325a.6.6,0,0,1,.465-.307c.593-.13,1.184-.268,1.777-.394a.407.407,0,0,0,.354-.31,3.168,3.168,0,0,1,.152-.443.488.488,0,0,0-.1-.574c-.408-.466-.793-.953-1.2-1.421a.51.51,0,0,1-.111-.56c.167-.469.318-.942.481-1.429l4.428,1.505c-.082.245-.159.477-.237.709-.069.2-.142.408-.209.614a.707.707,0,0,1-.562.5c-.593.13-1.184.268-1.778.393a.406.406,0,0,0-.352.311c-.051.185-.12.365-.185.546A.36.36,0,0,0,472.36,1123.153Z" transform="translate(-85.035 -88.487)" fill="#4166f5"/>
    <path id="Path_1600" data-name="Path 1600" d="M668.809,1324a1.345,1.345,0,0,0-1,1.114.659.659,0,0,0,.394.576.631.631,0,0,0,.727-.075,3.164,3.164,0,0,0,.5-.543.63.63,0,0,0,.013-.73A.667.667,0,0,0,668.809,1324Z" transform="translate(-275.595 -285.686)" fill="#4166f5"/>
    <path id="Path_1601" data-name="Path 1601" d="M701.657,1274.912a.672.672,0,0,0-.845.1,1.993,1.993,0,0,0-.406.88.721.721,0,0,0,.495.742.674.674,0,0,0,.783-.292,3.625,3.625,0,0,0,.283-.64A.676.676,0,0,0,701.657,1274.912Z" transform="translate(-306.636 -238.846)" fill="#4166f5"/>
    <path id="Path_1602" data-name="Path 1602" d="M716.842,1219.344a.7.7,0,0,0-.644-.717.69.69,0,0,0-.744.609,4.2,4.2,0,0,0-.035.593.685.685,0,0,0,.65.689.693.693,0,0,0,.736-.6c.02-.13.026-.263.038-.393C716.842,1219.464,716.842,1219.4,716.842,1219.344Z" transform="translate(-320.934 -185.341)" fill="#4166f5"/>
    <path id="Path_1603" data-name="Path 1603" d="M640.953,1073a.634.634,0,0,0-.237-.523,4.27,4.27,0,0,0-.548-.377.7.7,0,0,0-.773,1.146,3.727,3.727,0,0,0,.515.362A.7.7,0,0,0,640.953,1073Z" transform="translate(-248.299 -45.727)" fill="#4166f5"/>
    <path id="Path_1604" data-name="Path 1604" d="M681.451,1112.558a.695.695,0,0,0,1.121-.806,3.753,3.753,0,0,0-.388-.54.677.677,0,0,0-.775-.17.747.747,0,0,0-.451.656,1.4,1.4,0,0,0,.1.319A4.122,4.122,0,0,0,681.451,1112.558Z" transform="translate(-288.118 -82.837)" fill="#4166f5"/>
    <path id="Path_1605" data-name="Path 1605" d="M707.887,1162.59c.038.141.091.374.165.6a.7.7,0,0,0,1.355-.329,3.31,3.31,0,0,0-.187-.638.684.684,0,0,0-.753-.4A.73.73,0,0,0,707.887,1162.59Z" transform="translate(-313.761 -131.24)" fill="#4166f5"/>
  </g>
</svg>
