<svg width="48" height="48" viewBox="0 0 48 48" fill="none" xmlns="http://www.w3.org/2000/svg">
<g clip-path="url(#clip0_143_464)">
<path d="M45.1875 25.8736H44.25V19.3111C44.25 16.724 42.4333 14.5546 40.0089 14.0079L35.7419 6.61719C35.1166 5.53409 34.1069 4.75925 32.8988 4.43553C32.0457 4.20706 31.1662 4.22384 30.3413 4.47284L27.2386 1.37C25.4128 -0.455596 22.4424 -0.455783 20.6167 1.37L8.11322 13.8736H5.4375C2.43928 13.8736 0 16.3129 0 19.3111V42.5611C0 45.5593 2.43928 47.9986 5.4375 47.9986H17.9062C18.4239 47.9986 18.8438 47.5788 18.8438 47.0611C18.8438 46.5434 18.4239 46.1236 17.9062 46.1236H5.4375C3.47316 46.1236 1.875 44.5255 1.875 42.5611V19.3111C1.875 17.3468 3.47316 15.7486 5.4375 15.7486H38.8125C40.7768 15.7486 42.375 17.3468 42.375 19.3111V25.8736H35.4375C32.6461 25.8736 30.375 28.1447 30.375 30.9361C30.375 33.7275 32.6461 35.9986 35.4375 35.9986H42.375V42.5611C42.375 44.5255 40.7768 46.1236 38.8125 46.1236H26.3438C25.8261 46.1236 25.4062 46.5434 25.4062 47.0611C25.4062 47.5788 25.8261 47.9986 26.3438 47.9986H38.8125C41.8107 47.9986 44.25 45.5593 44.25 42.5611V35.9986H45.1875C46.7383 35.9986 48 34.7369 48 33.1861V28.6861C48 27.1354 46.7383 25.8736 45.1875 25.8736ZM32.4135 6.24669C33.1378 6.44075 33.7433 6.90528 34.1182 7.55469L37.7664 13.8736H17.5587L30.2832 6.52709C30.9325 6.15228 31.6889 6.05253 32.4135 6.24669ZM21.9426 2.6959C22.4727 2.16565 23.1778 1.87362 23.9276 1.87362C24.6775 1.87362 25.3826 2.16565 25.9128 2.6959L28.5688 5.35194L13.8088 13.8736H10.7649L21.9426 2.6959ZM46.125 33.1861C46.125 33.7031 45.7044 34.1236 45.1875 34.1236H35.4375C33.6799 34.1236 32.25 32.6937 32.25 30.9361C32.25 29.1785 33.6799 27.7486 35.4375 27.7486H45.1875C45.7044 27.7486 46.125 28.1692 46.125 28.6861V33.1861Z" fill="#5471CA"/>
<path d="M35.2812 29.9988C35.0347 29.9988 34.7928 30.0991 34.6184 30.2735C34.4441 30.448 34.3438 30.6888 34.3438 30.9363C34.3438 31.1829 34.444 31.4248 34.6184 31.5991C34.7928 31.7734 35.0347 31.8738 35.2812 31.8738C35.5288 31.8738 35.7697 31.7735 35.944 31.5991C36.1193 31.4248 36.2188 31.1829 36.2188 30.9363C36.2188 30.6898 36.1193 30.4479 35.944 30.2735C35.7697 30.0992 35.5288 29.9988 35.2812 29.9988Z" fill="#5471CA"/>
<path d="M22.125 46.1238C21.8784 46.1238 21.6366 46.2241 21.4622 46.3985C21.2878 46.573 21.1875 46.8148 21.1875 47.0613C21.1875 47.3079 21.2877 47.5498 21.4622 47.7241C21.6366 47.8984 21.8784 47.9988 22.125 47.9988C22.3716 47.9988 22.6134 47.8985 22.7877 47.7241C22.9621 47.5498 23.0625 47.3079 23.0625 47.0613C23.0625 46.8148 22.9622 46.5729 22.7877 46.3985C22.6134 46.2242 22.3716 46.1238 22.125 46.1238Z" fill="#5471CA"/>
</g>
<defs>
<clipPath id="clip0_143_464">
<rect width="48" height="48" fill="white"/>
</clipPath>
</defs>
</svg>
